<svg width="418" height="128" viewBox="0 0 418 128" fill="none" xmlns="http://www.w3.org/2000/svg">
<path d="M160.24 95V83.992C159.941 85.144 158.939 86.7227 157.232 88.728C155.568 90.7333 153.243 92.5467 150.256 94.168C147.312 95.7467 143.813 96.536 139.76 96.536C135.024 96.536 130.651 95.448 126.64 93.272C122.672 91.0533 119.472 87.8747 117.04 83.736C114.651 79.5547 113.456 74.5627 113.456 68.76C113.456 62.9573 114.651 57.9867 117.04 53.848C119.472 49.6667 122.672 46.4667 126.64 44.248C130.651 42.0293 135.024 40.92 139.76 40.92C143.813 40.92 147.312 41.688 150.256 43.224C153.2 44.7173 155.525 46.4453 157.232 48.408C158.981 50.3707 159.963 52.0133 160.176 53.336V42.456H167.344V95H160.24ZM120.688 68.76C120.688 73.1973 121.648 77.016 123.568 80.216C125.488 83.416 127.963 85.8693 130.992 87.576C134.064 89.2827 137.285 90.136 140.656 90.136C144.368 90.136 147.675 89.2613 150.576 87.512C153.477 85.7627 155.76 83.288 157.424 80.088C159.131 76.888 159.984 73.112 159.984 68.76C159.984 64.408 159.131 60.632 157.424 57.432C155.76 54.232 153.477 51.7573 150.576 50.008C147.675 48.216 144.368 47.32 140.656 47.32C137.285 47.32 134.064 48.1947 130.992 49.944C127.963 51.6507 125.488 54.104 123.568 57.304C121.648 60.504 120.688 64.3227 120.688 68.76ZM207.421 123.032C203.069 123.032 199.272 122.563 196.029 121.624C192.786 120.685 190.056 119.427 187.837 117.848C185.661 116.312 183.976 114.648 182.781 112.856L188.157 108.12C188.925 109.187 189.992 110.381 191.357 111.704C192.722 113.027 194.664 114.157 197.181 115.096C199.698 116.077 203.048 116.568 207.229 116.568C211.41 116.568 214.909 115.629 217.725 113.752C220.584 111.875 222.738 109.379 224.189 106.264C225.64 103.149 226.365 99.7147 226.365 95.96V94.104H233.469V96.536C233.469 102.253 232.296 107.075 229.949 111C227.645 114.968 224.509 117.955 220.541 119.96C216.616 122.008 212.242 123.032 207.421 123.032ZM226.365 95V83.992C226.066 85.144 225.064 86.7227 223.357 88.728C221.693 90.7333 219.368 92.5467 216.381 94.168C213.437 95.7467 209.938 96.536 205.885 96.536C201.149 96.536 196.776 95.448 192.765 93.272C188.797 91.0533 185.597 87.8747 183.165 83.736C180.776 79.5547 179.581 74.5627 179.581 68.76C179.581 62.9573 180.776 57.9867 183.165 53.848C185.597 49.6667 188.797 46.4667 192.765 44.248C196.776 42.0293 201.149 40.92 205.885 40.92C209.938 40.92 213.437 41.688 216.381 43.224C219.325 44.7173 221.65 46.4453 223.357 48.408C225.106 50.3707 226.088 52.0133 226.301 53.336V42.456H233.469V95H226.365ZM186.813 68.76C186.813 73.1973 187.773 77.016 189.693 80.216C191.613 83.416 194.088 85.8693 197.117 87.576C200.189 89.2827 203.41 90.136 206.781 90.136C210.493 90.136 213.8 89.2613 216.701 87.512C219.602 85.7627 221.885 83.288 223.549 80.088C225.256 76.888 226.109 73.112 226.109 68.76C226.109 64.408 225.256 60.632 223.549 57.432C221.885 54.232 219.602 51.7573 216.701 50.008C213.8 48.216 210.493 47.32 206.781 47.32C203.41 47.32 200.189 48.1947 197.117 49.944C194.088 51.6507 191.613 54.104 189.693 57.304C187.773 60.504 186.813 64.3227 186.813 68.76ZM251.582 95V42.456H258.814V95H251.582ZM255.294 21.144C253.758 21.144 252.435 20.6107 251.326 19.544C250.259 18.4347 249.726 17.112 249.726 15.576C249.726 13.9973 250.281 12.6747 251.39 11.608C252.499 10.4987 253.801 9.94399 255.294 9.94399C256.318 9.94399 257.257 10.2 258.11 10.712C259.006 11.224 259.71 11.9067 260.222 12.76C260.777 13.5707 261.054 14.5093 261.054 15.576C261.054 17.112 260.478 18.4347 259.326 19.544C258.217 20.6107 256.873 21.144 255.294 21.144ZM303.85 40.92C307.178 40.92 310.421 41.6453 313.578 43.096C316.735 44.504 319.338 46.7653 321.386 49.88C323.434 52.952 324.458 56.9413 324.458 61.848V95H317.034V63.576C317.034 57.7307 315.669 53.528 312.938 50.968C310.207 48.3653 306.709 47.064 302.442 47.064C299.626 47.064 296.895 47.8747 294.25 49.496C291.647 51.1173 289.493 53.336 287.786 56.152C286.122 58.968 285.29 62.1253 285.29 65.624V95H277.994V42.456H285.29V52.568C285.589 51.0747 286.591 49.432 288.298 47.64C290.047 45.8053 292.266 44.2267 294.954 42.904C297.685 41.5813 300.65 40.92 303.85 40.92ZM365.506 85.464C368.535 85.464 370.989 84.9733 372.866 83.992C374.786 82.968 376.023 82.2213 376.578 81.752L383.042 91.352C382.53 91.7787 381.463 92.4187 379.842 93.272C378.221 94.0827 376.151 94.8293 373.634 95.512C371.159 96.1947 368.343 96.536 365.186 96.536C359.981 96.536 355.245 95.448 350.978 93.272C346.754 91.0533 343.362 87.8747 340.802 83.736C338.285 79.5547 337.026 74.5413 337.026 68.696C337.026 62.808 338.285 57.7947 340.802 53.656C343.362 49.5173 346.754 46.36 350.978 44.184C355.245 42.008 359.981 40.92 365.186 40.92C368.301 40.92 371.074 41.2827 373.506 42.008C375.981 42.6907 378.029 43.48 379.65 44.376C381.271 45.272 382.359 45.976 382.914 46.488L376.322 56.088C376.023 55.7893 375.405 55.32 374.466 54.68C373.57 53.9973 372.375 53.3787 370.882 52.824C369.389 52.2693 367.597 51.992 365.506 51.992C362.946 51.992 360.493 52.6747 358.146 54.04C355.799 55.4053 353.879 57.3467 352.386 59.864C350.893 62.3387 350.146 65.2827 350.146 68.696C350.146 72.1093 350.893 75.0747 352.386 77.592C353.879 80.1093 355.799 82.0507 358.146 83.416C360.493 84.7813 362.946 85.464 365.506 85.464ZM393.86 95V42.456H407.492V95H393.86ZM400.836 26.712C398.532 26.712 396.548 25.88 394.884 24.216C393.263 22.552 392.452 20.568 392.452 18.264C392.452 15.96 393.263 13.976 394.884 12.312C396.548 10.6053 398.532 9.752 400.836 9.752C402.372 9.752 403.78 10.1573 405.06 10.968C406.383 11.736 407.428 12.76 408.196 14.04C409.007 15.2773 409.412 16.6853 409.412 18.264C409.412 20.568 408.58 22.552 406.916 24.216C405.252 25.88 403.225 26.712 400.836 26.712Z" fill="white"/>
<g clip-path="url(#clip0_89_63)">
<path d="M34.2401 30.7598C29.8724 32.5677 25.9035 35.2181 22.5601 38.5598" stroke="white" stroke-width="8" stroke-linecap="round" stroke-linejoin="round"/>
<path d="M14.76 50.2402C12.9462 54.6014 12.0084 59.2769 12 64.0002" stroke="white" stroke-width="8" stroke-linecap="round" stroke-linejoin="round"/>
<path d="M14.7598 77.7598C16.5677 82.1274 19.2181 86.0963 22.5598 89.4398" stroke="white" stroke-width="8" stroke-linecap="round" stroke-linejoin="round"/>
<path d="M34.2402 97.2402C38.6014 99.054 43.2769 99.9918 48.0002 100" stroke="white" stroke-width="8" stroke-linecap="round" stroke-linejoin="round"/>
<path d="M61.7598 97.2399C66.1274 95.432 70.0963 92.7816 73.4398 89.4399" stroke="white" stroke-width="8" stroke-linecap="round" stroke-linejoin="round"/>
<path d="M81.2402 77.76C83.054 73.3988 83.9918 68.7233 84.0002 64" stroke="white" stroke-width="8" stroke-linecap="round" stroke-linejoin="round"/>
<path d="M81.2399 50.2401C79.432 45.8724 76.7816 41.9035 73.4399 38.5601" stroke="white" stroke-width="8" stroke-linecap="round" stroke-linejoin="round"/>
<path d="M61.76 30.76C57.3988 28.9462 52.7233 28.0084 48 28" stroke="white" stroke-width="8" stroke-linecap="round" stroke-linejoin="round"/>
<path d="M36 64L44 72L60 56" stroke="white" stroke-width="8" stroke-linecap="round" stroke-linejoin="round"/>
</g>
<defs>
<clipPath id="clip0_89_63">
<rect width="96" height="96" fill="white" transform="translate(0 16)"/>
</clipPath>
</defs>
</svg>
