<svg width="418" height="128" viewBox="0 0 418 128" fill="none" xmlns="http://www.w3.org/2000/svg">
<g clip-path="url(#clip0_89_77)">
<path d="M152.24 95V83.992C151.941 85.144 150.939 86.7227 149.232 88.728C147.568 90.7333 145.243 92.5467 142.256 94.168C139.312 95.7467 135.813 96.536 131.76 96.536C127.024 96.536 122.651 95.448 118.64 93.272C114.672 91.0533 111.472 87.8747 109.04 83.736C106.651 79.5547 105.456 74.5627 105.456 68.76C105.456 62.9573 106.651 57.9867 109.04 53.848C111.472 49.6667 114.672 46.4667 118.64 44.248C122.651 42.0293 127.024 40.92 131.76 40.92C135.813 40.92 139.312 41.688 142.256 43.224C145.2 44.7173 147.525 46.4453 149.232 48.408C150.981 50.3707 151.963 52.0133 152.176 53.336V42.456H159.344V95H152.24ZM112.688 68.76C112.688 73.1973 113.648 77.016 115.568 80.216C117.488 83.416 119.963 85.8693 122.992 87.576C126.064 89.2827 129.285 90.136 132.656 90.136C136.368 90.136 139.675 89.2613 142.576 87.512C145.477 85.7627 147.76 83.288 149.424 80.088C151.131 76.888 151.984 73.112 151.984 68.76C151.984 64.408 151.131 60.632 149.424 57.432C147.76 54.232 145.477 51.7573 142.576 50.008C139.675 48.216 136.368 47.32 132.656 47.32C129.285 47.32 126.064 48.1947 122.992 49.944C119.963 51.6507 117.488 54.104 115.568 57.304C113.648 60.504 112.688 64.3227 112.688 68.76ZM199.421 123.032C195.069 123.032 191.272 122.563 188.029 121.624C184.786 120.685 182.056 119.427 179.837 117.848C177.661 116.312 175.976 114.648 174.781 112.856L180.157 108.12C180.925 109.187 181.992 110.381 183.357 111.704C184.722 113.027 186.664 114.157 189.181 115.096C191.698 116.077 195.048 116.568 199.229 116.568C203.41 116.568 206.909 115.629 209.725 113.752C212.584 111.875 214.738 109.379 216.189 106.264C217.64 103.149 218.365 99.7147 218.365 95.96V94.104H225.469V96.536C225.469 102.253 224.296 107.075 221.949 111C219.645 114.968 216.509 117.955 212.541 119.96C208.616 122.008 204.242 123.032 199.421 123.032ZM218.365 95V83.992C218.066 85.144 217.064 86.7227 215.357 88.728C213.693 90.7333 211.368 92.5467 208.381 94.168C205.437 95.7467 201.938 96.536 197.885 96.536C193.149 96.536 188.776 95.448 184.765 93.272C180.797 91.0533 177.597 87.8747 175.165 83.736C172.776 79.5547 171.581 74.5627 171.581 68.76C171.581 62.9573 172.776 57.9867 175.165 53.848C177.597 49.6667 180.797 46.4667 184.765 44.248C188.776 42.0293 193.149 40.92 197.885 40.92C201.938 40.92 205.437 41.688 208.381 43.224C211.325 44.7173 213.65 46.4453 215.357 48.408C217.106 50.3707 218.088 52.0133 218.301 53.336V42.456H225.469V95H218.365ZM178.813 68.76C178.813 73.1973 179.773 77.016 181.693 80.216C183.613 83.416 186.088 85.8693 189.117 87.576C192.189 89.2827 195.41 90.136 198.781 90.136C202.493 90.136 205.8 89.2613 208.701 87.512C211.602 85.7627 213.885 83.288 215.549 80.088C217.256 76.888 218.109 73.112 218.109 68.76C218.109 64.408 217.256 60.632 215.549 57.432C213.885 54.232 211.602 51.7573 208.701 50.008C205.8 48.216 202.493 47.32 198.781 47.32C195.41 47.32 192.189 48.1947 189.117 49.944C186.088 51.6507 183.613 54.104 181.693 57.304C179.773 60.504 178.813 64.3227 178.813 68.76ZM243.582 95V42.456H250.814V95H243.582ZM247.294 21.144C245.758 21.144 244.435 20.6107 243.326 19.544C242.259 18.4347 241.726 17.112 241.726 15.576C241.726 13.9973 242.281 12.6747 243.39 11.608C244.499 10.4987 245.801 9.94399 247.294 9.94399C248.318 9.94399 249.257 10.2 250.11 10.712C251.006 11.224 251.71 11.9067 252.222 12.76C252.777 13.5707 253.054 14.5093 253.054 15.576C253.054 17.112 252.478 18.4347 251.326 19.544C250.217 20.6107 248.873 21.144 247.294 21.144ZM295.85 40.92C299.178 40.92 302.421 41.6453 305.578 43.096C308.735 44.504 311.338 46.7653 313.386 49.88C315.434 52.952 316.458 56.9413 316.458 61.848V95H309.034V63.576C309.034 57.7307 307.669 53.528 304.938 50.968C302.207 48.3653 298.709 47.064 294.442 47.064C291.626 47.064 288.895 47.8747 286.25 49.496C283.647 51.1173 281.493 53.336 279.786 56.152C278.122 58.968 277.29 62.1253 277.29 65.624V95H269.994V42.456H277.29V52.568C277.589 51.0747 278.591 49.432 280.298 47.64C282.047 45.8053 284.266 44.2267 286.954 42.904C289.685 41.5813 292.65 40.92 295.85 40.92ZM357.506 85.464C360.535 85.464 362.989 84.9733 364.866 83.992C366.786 82.968 368.023 82.2213 368.578 81.752L375.042 91.352C374.53 91.7787 373.463 92.4187 371.842 93.272C370.221 94.0827 368.151 94.8293 365.634 95.512C363.159 96.1947 360.343 96.536 357.186 96.536C351.981 96.536 347.245 95.448 342.978 93.272C338.754 91.0533 335.362 87.8747 332.802 83.736C330.285 79.5547 329.026 74.5413 329.026 68.696C329.026 62.808 330.285 57.7947 332.802 53.656C335.362 49.5173 338.754 46.36 342.978 44.184C347.245 42.008 351.981 40.92 357.186 40.92C360.301 40.92 363.074 41.2827 365.506 42.008C367.981 42.6907 370.029 43.48 371.65 44.376C373.271 45.272 374.359 45.976 374.914 46.488L368.322 56.088C368.023 55.7893 367.405 55.32 366.466 54.68C365.57 53.9973 364.375 53.3787 362.882 52.824C361.389 52.2693 359.597 51.992 357.506 51.992C354.946 51.992 352.493 52.6747 350.146 54.04C347.799 55.4053 345.879 57.3467 344.386 59.864C342.893 62.3387 342.146 65.2827 342.146 68.696C342.146 72.1093 342.893 75.0747 344.386 77.592C345.879 80.1093 347.799 82.0507 350.146 83.416C352.493 84.7813 354.946 85.464 357.506 85.464ZM385.86 95V42.456H399.492V95H385.86ZM392.836 26.712C390.532 26.712 388.548 25.88 386.884 24.216C385.263 22.552 384.452 20.568 384.452 18.264C384.452 15.96 385.263 13.976 386.884 12.312C388.548 10.6053 390.532 9.752 392.836 9.752C394.372 9.752 395.78 10.1573 397.06 10.968C398.383 11.736 399.428 12.76 400.196 14.04C401.007 15.2773 401.412 16.6853 401.412 18.264C401.412 20.568 400.58 22.552 398.916 24.216C397.252 25.88 395.225 26.712 392.836 26.712Z" fill="#0A0A0A"/>
<g clip-path="url(#clip1_89_77)">
<path d="M26.2401 30.7598C21.8724 32.5677 17.9035 35.2181 14.5601 38.5598" stroke="#0A0A0A" stroke-width="8" stroke-linecap="round" stroke-linejoin="round"/>
<path d="M6.76 50.2402C4.94623 54.6014 4.00841 59.2769 4 64.0002" stroke="#0A0A0A" stroke-width="8" stroke-linecap="round" stroke-linejoin="round"/>
<path d="M6.75977 77.7598C8.56771 82.1274 11.2181 86.0963 14.5598 89.4398" stroke="#0A0A0A" stroke-width="8" stroke-linecap="round" stroke-linejoin="round"/>
<path d="M26.2402 97.2402C30.6014 99.054 35.2769 99.9918 40.0002 100" stroke="#0A0A0A" stroke-width="8" stroke-linecap="round" stroke-linejoin="round"/>
<path d="M53.7598 97.2399C58.1274 95.432 62.0963 92.7816 65.4398 89.4399" stroke="#0A0A0A" stroke-width="8" stroke-linecap="round" stroke-linejoin="round"/>
<path d="M73.2402 77.76C75.054 73.3988 75.9918 68.7233 76.0002 64" stroke="#0A0A0A" stroke-width="8" stroke-linecap="round" stroke-linejoin="round"/>
<path d="M73.2399 50.2401C71.432 45.8724 68.7816 41.9035 65.4399 38.5601" stroke="#0A0A0A" stroke-width="8" stroke-linecap="round" stroke-linejoin="round"/>
<path d="M53.76 30.76C49.3988 28.9462 44.7233 28.0084 40 28" stroke="#0A0A0A" stroke-width="8" stroke-linecap="round" stroke-linejoin="round"/>
<path d="M28 64L36 72L52 56" stroke="#0A0A0A" stroke-width="8" stroke-linecap="round" stroke-linejoin="round"/>
</g>
</g>
<defs>
<clipPath id="clip0_89_77">
<rect width="418" height="128" fill="white"/>
</clipPath>
<clipPath id="clip1_89_77">
<rect width="96" height="96" fill="white" transform="translate(-8 16)"/>
</clipPath>
</defs>
</svg>
